<svg xmlns="http://www.w3.org/2000/svg" xmlns:xlink="http://www.w3.org/1999/xlink" width="300" zoomAndPan="magnify" viewBox="0 0 224.87999 54" height="72" preserveAspectRatio="xMidYMid meet" version="1.0"><defs><g/></defs><g fill="#0ea5a4" fill-opacity="1"><g transform="translate(26.932378, 38.29091)"><g><path d="M 10.6875 0 L 4.640625 0 L 4.640625 -2.78125 L 10.484375 -2.78125 C 12.523438 -2.78125 14.210938 -3.171875 15.546875 -3.953125 C 16.890625 -4.742188 17.890625 -5.867188 18.546875 -7.328125 C 19.210938 -8.785156 19.546875 -10.523438 19.546875 -12.546875 C 19.546875 -14.546875 19.21875 -16.265625 18.5625 -17.703125 C 17.90625 -19.148438 16.929688 -20.265625 15.640625 -21.046875 C 14.347656 -21.828125 12.726562 -22.21875 10.78125 -22.21875 L 4.515625 -22.21875 L 4.515625 -25 L 11 -25 C 13.4375 -25 15.519531 -24.5 17.25 -23.5 C 18.976562 -22.507812 20.300781 -21.082031 21.21875 -19.21875 C 22.144531 -17.351562 22.609375 -15.128906 22.609375 -12.546875 C 22.609375 -9.941406 22.144531 -7.703125 21.21875 -5.828125 C 20.289062 -3.953125 18.9375 -2.507812 17.15625 -1.5 C 15.382812 -0.5 13.226562 0 10.6875 0 Z M 6.0625 -25 L 6.0625 0 L 2.90625 0 L 2.90625 -25 Z M 6.0625 -25 "/></g></g></g><g fill="#0ea5a4" fill-opacity="1"><g transform="translate(50.787487, 38.29091)"><g><path d="M 10.09375 0.40625 C 8.40625 0.40625 6.925781 0.00390625 5.65625 -0.796875 C 4.394531 -1.597656 3.40625 -2.71875 2.6875 -4.15625 C 1.976562 -5.601562 1.625 -7.269531 1.625 -9.15625 C 1.625 -11.082031 1.976562 -12.769531 2.6875 -14.21875 C 3.40625 -15.664062 4.394531 -16.789062 5.65625 -17.59375 C 6.925781 -18.394531 8.40625 -18.796875 10.09375 -18.796875 C 11.789062 -18.796875 13.273438 -18.394531 14.546875 -17.59375 C 15.816406 -16.789062 16.804688 -15.664062 17.515625 -14.21875 C 18.234375 -12.769531 18.59375 -11.082031 18.59375 -9.15625 C 18.59375 -7.269531 18.234375 -5.601562 17.515625 -4.15625 C 16.804688 -2.71875 15.816406 -1.597656 14.546875 -0.796875 C 13.273438 0.00390625 11.789062 0.40625 10.09375 0.40625 Z M 10.09375 -2.265625 C 11.320312 -2.265625 12.34375 -2.578125 13.15625 -3.203125 C 13.96875 -3.828125 14.570312 -4.660156 14.96875 -5.703125 C 15.363281 -6.753906 15.5625 -7.90625 15.5625 -9.15625 C 15.5625 -10.425781 15.363281 -11.585938 14.96875 -12.640625 C 14.570312 -13.703125 13.96875 -14.546875 13.15625 -15.171875 C 12.34375 -15.804688 11.320312 -16.125 10.09375 -16.125 C 8.875 -16.125 7.863281 -15.804688 7.0625 -15.171875 C 6.257812 -14.546875 5.65625 -13.707031 5.25 -12.65625 C 4.84375 -11.601562 4.640625 -10.4375 4.640625 -9.15625 C 4.640625 -7.90625 4.84375 -6.753906 5.25 -5.703125 C 5.65625 -4.660156 6.253906 -3.828125 7.046875 -3.203125 C 7.847656 -2.578125 8.863281 -2.265625 10.09375 -2.265625 Z M 10.09375 -2.265625 "/></g></g></g><g fill="#0ea5a4" fill-opacity="1"><g transform="translate(70.31455, 38.29091)"><g><path d="M 10.09375 0.40625 C 8.40625 0.40625 6.925781 0.00390625 5.65625 -0.796875 C 4.394531 -1.597656 3.40625 -2.71875 2.6875 -4.15625 C 1.976562 -5.601562 1.625 -7.269531 1.625 -9.15625 C 1.625 -11.082031 1.976562 -12.769531 2.6875 -14.21875 C 3.40625 -15.664062 4.394531 -16.789062 5.65625 -17.59375 C 6.925781 -18.394531 8.40625 -18.796875 10.09375 -18.796875 C 11.03125 -18.796875 11.90625 -18.671875 12.71875 -18.421875 C 13.53125 -18.171875 14.265625 -17.8125 14.921875 -17.34375 C 15.585938 -16.875 16.15625 -16.304688 16.625 -15.640625 C 17.09375 -14.972656 17.441406 -14.222656 17.671875 -13.390625 L 14.765625 -12.75 C 14.640625 -13.238281 14.4375 -13.6875 14.15625 -14.09375 C 13.882812 -14.507812 13.550781 -14.867188 13.15625 -15.171875 C 12.769531 -15.472656 12.320312 -15.707031 11.8125 -15.875 C 11.300781 -16.039062 10.726562 -16.125 10.09375 -16.125 C 8.875 -16.125 7.863281 -15.804688 7.0625 -15.171875 C 6.257812 -14.546875 5.65625 -13.707031 5.25 -12.65625 C 4.84375 -11.601562 4.640625 -10.4375 4.640625 -9.15625 C 4.640625 -7.90625 4.84375 -6.753906 5.25 -5.703125 C 5.65625 -4.660156 6.253906 -3.828125 7.046875 -3.203125 C 7.847656 -2.578125 8.863281 -2.265625 10.09375 -2.265625 C 10.726562 -2.265625 11.300781 -2.347656 11.8125 -2.515625 C 12.332031 -2.679688 12.796875 -2.921875 13.203125 -3.234375 C 13.609375 -3.546875 13.941406 -3.914062 14.203125 -4.34375 C 14.472656 -4.78125 14.675781 -5.25 14.8125 -5.75 L 17.71875 -5.109375 C 17.488281 -4.265625 17.140625 -3.503906 16.671875 -2.828125 C 16.203125 -2.160156 15.632812 -1.582031 14.96875 -1.09375 C 14.300781 -0.613281 13.554688 -0.242188 12.734375 0.015625 C 11.910156 0.273438 11.03125 0.40625 10.09375 0.40625 Z M 10.09375 0.40625 "/></g></g></g><g fill="#0ea5a4" fill-opacity="1"><g transform="translate(88.885416, 38.29091)"><g><path d="M 2.90625 0 L 2.90625 -25 L 7.328125 -25 L 13.546875 -9.140625 C 13.679688 -8.773438 13.84375 -8.316406 14.03125 -7.765625 C 14.21875 -7.222656 14.414062 -6.632812 14.625 -6 C 14.84375 -5.375 15.046875 -4.753906 15.234375 -4.140625 C 15.421875 -3.523438 15.582031 -2.96875 15.71875 -2.46875 L 15.015625 -2.46875 C 15.160156 -2.945312 15.328125 -3.488281 15.515625 -4.09375 C 15.703125 -4.695312 15.898438 -5.3125 16.109375 -5.9375 C 16.316406 -6.570312 16.519531 -7.171875 16.71875 -7.734375 C 16.914062 -8.304688 17.085938 -8.773438 17.234375 -9.140625 L 23.34375 -25 L 27.78125 -25 L 27.78125 0 L 24.671875 0 L 24.671875 -14.328125 C 24.671875 -14.835938 24.675781 -15.421875 24.6875 -16.078125 C 24.695312 -16.734375 24.707031 -17.410156 24.71875 -18.109375 C 24.738281 -18.816406 24.753906 -19.535156 24.765625 -20.265625 C 24.785156 -21.003906 24.800781 -21.710938 24.8125 -22.390625 L 25.109375 -22.390625 C 24.878906 -21.617188 24.628906 -20.84375 24.359375 -20.0625 C 24.085938 -19.28125 23.828125 -18.523438 23.578125 -17.796875 C 23.335938 -17.066406 23.109375 -16.40625 22.890625 -15.8125 C 22.671875 -15.226562 22.484375 -14.734375 22.328125 -14.328125 L 16.6875 0 L 13.984375 0 L 8.265625 -14.328125 C 8.109375 -14.722656 7.925781 -15.207031 7.71875 -15.78125 C 7.519531 -16.363281 7.289062 -17.015625 7.03125 -17.734375 C 6.78125 -18.453125 6.519531 -19.207031 6.25 -20 C 5.976562 -20.789062 5.703125 -21.585938 5.421875 -22.390625 L 5.765625 -22.390625 C 5.796875 -21.765625 5.816406 -21.097656 5.828125 -20.390625 C 5.847656 -19.679688 5.863281 -18.960938 5.875 -18.234375 C 5.882812 -17.515625 5.894531 -16.820312 5.90625 -16.15625 C 5.914062 -15.488281 5.921875 -14.878906 5.921875 -14.328125 L 5.921875 0 Z M 2.90625 0 "/></g></g></g><g fill="#0ea5a4" fill-opacity="1"><g transform="translate(118.880312, 38.29091)"><g><path d="M 2.53125 0 L 2.53125 -18.515625 L 5.515625 -18.515625 L 5.515625 0 Z M 4.03125 -21.671875 C 3.46875 -21.671875 2.984375 -21.863281 2.578125 -22.25 C 2.171875 -22.644531 1.96875 -23.117188 1.96875 -23.671875 C 1.96875 -24.222656 2.171875 -24.691406 2.578125 -25.078125 C 2.984375 -25.460938 3.46875 -25.65625 4.03125 -25.65625 C 4.59375 -25.65625 5.078125 -25.460938 5.484375 -25.078125 C 5.898438 -24.691406 6.109375 -24.222656 6.109375 -23.671875 C 6.109375 -23.117188 5.898438 -22.644531 5.484375 -22.25 C 5.078125 -21.863281 4.59375 -21.671875 4.03125 -21.671875 Z M 4.03125 -21.671875 "/></g></g></g><g fill="#0ea5a4" fill-opacity="1"><g transform="translate(126.245229, 38.29091)"><g><path d="M 5.515625 -11.046875 L 5.515625 0 L 2.53125 0 L 2.53125 -18.515625 L 5.40625 -18.515625 L 5.421875 -14.046875 L 4.921875 -14.046875 C 5.484375 -15.742188 6.289062 -16.957031 7.34375 -17.6875 C 8.394531 -18.425781 9.632812 -18.796875 11.0625 -18.796875 C 12.3125 -18.796875 13.410156 -18.535156 14.359375 -18.015625 C 15.316406 -17.492188 16.066406 -16.707031 16.609375 -15.65625 C 17.160156 -14.613281 17.4375 -13.296875 17.4375 -11.703125 L 17.4375 0 L 14.4375 0 L 14.4375 -11.46875 C 14.4375 -12.925781 14.0625 -14.0625 13.3125 -14.875 C 12.570312 -15.6875 11.546875 -16.09375 10.234375 -16.09375 C 9.335938 -16.09375 8.535156 -15.898438 7.828125 -15.515625 C 7.117188 -15.140625 6.554688 -14.578125 6.140625 -13.828125 C 5.722656 -13.078125 5.515625 -12.148438 5.515625 -11.046875 Z M 5.515625 -11.046875 "/></g></g></g><g fill="#0ea5a4" fill-opacity="1"><g transform="translate(145.520661, 38.29091)"><g><path d="M 9.515625 0.390625 C 7.960938 0.390625 6.59375 -0.00390625 5.40625 -0.796875 C 4.21875 -1.585938 3.289062 -2.703125 2.625 -4.140625 C 1.957031 -5.578125 1.625 -7.273438 1.625 -9.234375 C 1.625 -11.171875 1.957031 -12.851562 2.625 -14.28125 C 3.289062 -15.71875 4.21875 -16.828125 5.40625 -17.609375 C 6.601562 -18.398438 7.972656 -18.796875 9.515625 -18.796875 C 10.628906 -18.796875 11.546875 -18.613281 12.265625 -18.25 C 12.984375 -17.882812 13.550781 -17.453125 13.96875 -16.953125 C 14.394531 -16.460938 14.734375 -16.015625 14.984375 -15.609375 L 15.171875 -15.609375 L 15.171875 -25 L 18.15625 -25 L 18.15625 0 L 15.265625 0 L 15.265625 -2.859375 L 15 -2.859375 C 14.738281 -2.429688 14.390625 -1.960938 13.953125 -1.453125 C 13.515625 -0.953125 12.9375 -0.519531 12.21875 -0.15625 C 11.507812 0.207031 10.609375 0.390625 9.515625 0.390625 Z M 9.953125 -2.28125 C 11.078125 -2.28125 12.035156 -2.570312 12.828125 -3.15625 C 13.617188 -3.75 14.21875 -4.566406 14.625 -5.609375 C 15.039062 -6.660156 15.25 -7.875 15.25 -9.25 C 15.25 -10.625 15.046875 -11.820312 14.640625 -12.84375 C 14.234375 -13.875 13.632812 -14.675781 12.84375 -15.25 C 12.050781 -15.832031 11.085938 -16.125 9.953125 -16.125 C 8.804688 -16.125 7.835938 -15.828125 7.046875 -15.234375 C 6.265625 -14.640625 5.664062 -13.820312 5.25 -12.78125 C 4.84375 -11.75 4.640625 -10.570312 4.640625 -9.25 C 4.640625 -7.914062 4.84375 -6.722656 5.25 -5.671875 C 5.664062 -4.617188 6.269531 -3.789062 7.0625 -3.1875 C 7.851562 -2.582031 8.816406 -2.28125 9.953125 -2.28125 Z M 9.953125 -2.28125 "/></g></g></g><g fill="#0ea5a4" fill-opacity="1"><g transform="translate(165.517434, 38.29091)"><g><path d="M 10.28125 0.40625 C 8.488281 0.40625 6.941406 0.00390625 5.640625 -0.796875 C 4.347656 -1.609375 3.351562 -2.726562 2.65625 -4.15625 C 1.96875 -5.59375 1.625 -7.253906 1.625 -9.140625 C 1.625 -11.035156 1.96875 -12.707031 2.65625 -14.15625 C 3.34375 -15.613281 4.316406 -16.75 5.578125 -17.5625 C 6.835938 -18.382812 8.300781 -18.796875 9.96875 -18.796875 C 11.019531 -18.796875 12.03125 -18.617188 13 -18.265625 C 13.976562 -17.910156 14.851562 -17.351562 15.625 -16.59375 C 16.394531 -15.84375 17.003906 -14.875 17.453125 -13.6875 C 17.898438 -12.5 18.125 -11.085938 18.125 -9.453125 L 18.125 -8.28125 L 3.5625 -8.28125 L 3.5625 -10.796875 L 16.484375 -10.796875 L 15.140625 -9.90625 C 15.140625 -11.125 14.9375 -12.203125 14.53125 -13.140625 C 14.132812 -14.078125 13.550781 -14.8125 12.78125 -15.34375 C 12.019531 -15.875 11.082031 -16.140625 9.96875 -16.140625 C 8.851562 -16.140625 7.894531 -15.867188 7.09375 -15.328125 C 6.300781 -14.796875 5.691406 -14.082031 5.265625 -13.1875 C 4.835938 -12.300781 4.625 -11.328125 4.625 -10.265625 L 4.625 -8.6875 C 4.625 -7.332031 4.851562 -6.175781 5.3125 -5.21875 C 5.78125 -4.257812 6.441406 -3.523438 7.296875 -3.015625 C 8.160156 -2.515625 9.160156 -2.265625 10.296875 -2.265625 C 11.054688 -2.265625 11.738281 -2.375 12.34375 -2.59375 C 12.957031 -2.820312 13.484375 -3.15625 13.921875 -3.59375 C 14.359375 -4.03125 14.691406 -4.566406 14.921875 -5.203125 L 17.8125 -4.5625 C 17.53125 -3.59375 17.039062 -2.734375 16.34375 -1.984375 C 15.65625 -1.234375 14.796875 -0.644531 13.765625 -0.21875 C 12.734375 0.195312 11.570312 0.40625 10.28125 0.40625 Z M 10.28125 0.40625 "/></g></g></g><g fill="#0ea5a4" fill-opacity="1"><g transform="translate(184.507685, 38.29091)"><g><path d="M 2.53125 0 L 2.53125 -18.515625 L 5.40625 -18.515625 L 5.40625 -15.671875 L 5.5625 -15.671875 C 5.914062 -16.609375 6.515625 -17.363281 7.359375 -17.9375 C 8.210938 -18.507812 9.191406 -18.796875 10.296875 -18.796875 C 10.535156 -18.796875 10.800781 -18.785156 11.09375 -18.765625 C 11.382812 -18.753906 11.609375 -18.742188 11.765625 -18.734375 L 11.765625 -15.734375 C 11.671875 -15.753906 11.445312 -15.785156 11.09375 -15.828125 C 10.738281 -15.878906 10.363281 -15.90625 9.96875 -15.90625 C 9.125 -15.90625 8.363281 -15.722656 7.6875 -15.359375 C 7.007812 -15.003906 6.476562 -14.503906 6.09375 -13.859375 C 5.707031 -13.210938 5.515625 -12.445312 5.515625 -11.5625 L 5.515625 0 Z M 2.53125 0 "/></g></g></g></svg>