<svg xmlns="http://www.w3.org/2000/svg" xmlns:xlink="http://www.w3.org/1999/xlink" width="300" zoomAndPan="magnify" viewBox="0 0 224.87999 54" height="72" preserveAspectRatio="xMidYMid meet" version="1.0"><defs><g/><clipPath id="a94ead980e"><path d="M 50 0 L 199 0 L 199 53.019531 L 50 53.019531 Z M 50 0 " clip-rule="nonzero"/></clipPath><clipPath id="652e0e2603"><rect x="0" width="149" y="0" height="54"/></clipPath><clipPath id="85f761f216"><path d="M 22.285156 9.328125 L 52.476562 9.328125 L 52.476562 46 L 22.285156 46 Z M 22.285156 9.328125 " clip-rule="nonzero"/></clipPath></defs><g clip-path="url(#a94ead980e)"><g transform="matrix(1, 0, 0, 1, 50, -0.000000000000014165)"><g clip-path="url(#652e0e2603)"><g fill="#0ea5a4" fill-opacity="1"><g transform="translate(0.290902, 42.486089)"><g><path d="M 3.265625 0 L 3.265625 -23.875 L 6.96875 -23.875 L 6.96875 -20.1875 L 7.171875 -20.1875 C 7.617188 -21.40625 8.390625 -22.378906 9.484375 -23.109375 C 10.585938 -23.847656 11.851562 -24.21875 13.28125 -24.21875 C 13.582031 -24.21875 13.921875 -24.207031 14.296875 -24.1875 C 14.671875 -24.175781 14.957031 -24.164062 15.15625 -24.15625 L 15.15625 -20.28125 C 15.039062 -20.3125 14.753906 -20.351562 14.296875 -20.40625 C 13.847656 -20.46875 13.363281 -20.5 12.84375 -20.5 C 11.757812 -20.5 10.78125 -20.265625 9.90625 -19.796875 C 9.039062 -19.335938 8.359375 -18.691406 7.859375 -17.859375 C 7.359375 -17.023438 7.109375 -16.035156 7.109375 -14.890625 L 7.109375 0 Z M 3.265625 0 "/></g></g></g><g fill="#0ea5a4" fill-opacity="1"><g transform="translate(15.536197, 42.486089)"><g><path d="M 13.015625 0.515625 C 10.835938 0.515625 8.929688 0 7.296875 -1.03125 C 5.660156 -2.0625 4.382812 -3.503906 3.46875 -5.359375 C 2.550781 -7.222656 2.09375 -9.375 2.09375 -11.8125 C 2.09375 -14.289062 2.550781 -16.460938 3.46875 -18.328125 C 4.382812 -20.191406 5.660156 -21.640625 7.296875 -22.671875 C 8.929688 -23.703125 10.835938 -24.21875 13.015625 -24.21875 C 14.210938 -24.21875 15.335938 -24.054688 16.390625 -23.734375 C 17.441406 -23.421875 18.390625 -22.960938 19.234375 -22.359375 C 20.085938 -21.753906 20.816406 -21.019531 21.421875 -20.15625 C 22.023438 -19.300781 22.472656 -18.332031 22.765625 -17.25 L 19.03125 -16.4375 C 18.875 -17.070312 18.617188 -17.648438 18.265625 -18.171875 C 17.910156 -18.703125 17.476562 -19.160156 16.96875 -19.546875 C 16.46875 -19.929688 15.882812 -20.234375 15.21875 -20.453125 C 14.5625 -20.671875 13.828125 -20.78125 13.015625 -20.78125 C 11.441406 -20.78125 10.132812 -20.367188 9.09375 -19.546875 C 8.0625 -18.734375 7.285156 -17.648438 6.765625 -16.296875 C 6.242188 -14.941406 5.984375 -13.445312 5.984375 -11.8125 C 5.984375 -10.195312 6.242188 -8.710938 6.765625 -7.359375 C 7.285156 -6.015625 8.0625 -4.9375 9.09375 -4.125 C 10.125 -3.320312 11.429688 -2.921875 13.015625 -2.921875 C 13.828125 -2.921875 14.566406 -3.023438 15.234375 -3.234375 C 15.898438 -3.453125 16.492188 -3.765625 17.015625 -4.171875 C 17.535156 -4.578125 17.96875 -5.054688 18.3125 -5.609375 C 18.65625 -6.160156 18.914062 -6.765625 19.09375 -7.421875 L 22.828125 -6.59375 C 22.546875 -5.5 22.097656 -4.519531 21.484375 -3.65625 C 20.878906 -2.789062 20.148438 -2.039062 19.296875 -1.40625 C 18.441406 -0.78125 17.476562 -0.304688 16.40625 0.015625 C 15.34375 0.347656 14.210938 0.515625 13.015625 0.515625 Z M 13.015625 0.515625 "/></g></g></g><g fill="#0ea5a4" fill-opacity="1"><g transform="translate(39.474066, 42.486089)"><g><path d="M 7.109375 -14.234375 L 7.109375 0 L 3.265625 0 L 3.265625 -32.21875 L 7.109375 -32.21875 L 7.109375 -18.09375 L 6.328125 -18.09375 C 7.066406 -20.289062 8.113281 -21.859375 9.46875 -22.796875 C 10.820312 -23.742188 12.414062 -24.21875 14.25 -24.21875 C 15.863281 -24.21875 17.289062 -23.878906 18.53125 -23.203125 C 19.769531 -22.535156 20.738281 -21.523438 21.4375 -20.171875 C 22.132812 -18.828125 22.484375 -17.132812 22.484375 -15.09375 L 22.484375 0 L 18.609375 0 L 18.609375 -14.796875 C 18.609375 -16.660156 18.125 -18.113281 17.15625 -19.15625 C 16.195312 -20.207031 14.875 -20.734375 13.1875 -20.734375 C 12.03125 -20.734375 10.992188 -20.488281 10.078125 -20 C 9.171875 -19.507812 8.445312 -18.78125 7.90625 -17.8125 C 7.375 -16.851562 7.109375 -15.660156 7.109375 -14.234375 Z M 7.109375 -14.234375 "/></g></g></g><g fill="#0ea5a4" fill-opacity="1"><g transform="translate(64.341739, 42.486089)"><g><path d="M 13.25 0.515625 C 10.945312 0.515625 8.957031 0 7.28125 -1.03125 C 5.613281 -2.070312 4.332031 -3.515625 3.4375 -5.359375 C 2.539062 -7.203125 2.09375 -9.34375 2.09375 -11.78125 C 2.09375 -14.21875 2.535156 -16.375 3.421875 -18.25 C 4.304688 -20.125 5.5625 -21.585938 7.1875 -22.640625 C 8.8125 -23.691406 10.695312 -24.21875 12.84375 -24.21875 C 14.195312 -24.21875 15.5 -23.988281 16.75 -23.53125 C 18.007812 -23.082031 19.132812 -22.367188 20.125 -21.390625 C 21.125 -20.421875 21.910156 -19.171875 22.484375 -17.640625 C 23.054688 -16.109375 23.34375 -14.285156 23.34375 -12.171875 L 23.34375 -10.6875 L 4.578125 -10.6875 L 4.578125 -13.921875 L 21.25 -13.921875 L 19.5 -12.75 C 19.5 -14.320312 19.242188 -15.710938 18.734375 -16.921875 C 18.222656 -18.140625 17.472656 -19.085938 16.484375 -19.765625 C 15.492188 -20.453125 14.28125 -20.796875 12.84375 -20.796875 C 11.414062 -20.796875 10.1875 -20.445312 9.15625 -19.75 C 8.125 -19.0625 7.332031 -18.144531 6.78125 -17 C 6.238281 -15.851562 5.96875 -14.597656 5.96875 -13.234375 L 5.96875 -11.203125 C 5.96875 -9.453125 6.265625 -7.957031 6.859375 -6.71875 C 7.460938 -5.476562 8.316406 -4.535156 9.421875 -3.890625 C 10.523438 -3.242188 11.8125 -2.921875 13.28125 -2.921875 C 14.257812 -2.921875 15.140625 -3.0625 15.921875 -3.34375 C 16.710938 -3.632812 17.390625 -4.0625 17.953125 -4.625 C 18.515625 -5.1875 18.9375 -5.878906 19.21875 -6.703125 L 22.96875 -5.875 C 22.601562 -4.625 21.972656 -3.515625 21.078125 -2.546875 C 20.179688 -1.585938 19.066406 -0.835938 17.734375 -0.296875 C 16.398438 0.242188 14.90625 0.515625 13.25 0.515625 Z M 13.25 0.515625 "/></g></g></g><g fill="#0ea5a4" fill-opacity="1"><g transform="translate(88.820191, 42.486089)"><g><path d="M 3.265625 0 L 3.265625 -23.875 L 7.109375 -23.875 L 7.109375 0 Z M 5.1875 -27.9375 C 4.46875 -27.9375 3.84375 -28.1875 3.3125 -28.6875 C 2.789062 -29.195312 2.53125 -29.804688 2.53125 -30.515625 C 2.53125 -31.210938 2.789062 -31.8125 3.3125 -32.3125 C 3.84375 -32.8125 4.46875 -33.0625 5.1875 -33.0625 C 5.914062 -33.0625 6.539062 -32.8125 7.0625 -32.3125 C 7.59375 -31.8125 7.859375 -31.210938 7.859375 -30.515625 C 7.859375 -29.804688 7.59375 -29.195312 7.0625 -28.6875 C 6.539062 -28.1875 5.914062 -27.9375 5.1875 -27.9375 Z M 5.1875 -27.9375 "/></g></g></g><g fill="#0ea5a4" fill-opacity="1"><g transform="translate(98.313689, 42.486089)"><g><path d="M 13.015625 0.515625 C 10.835938 0.515625 8.929688 0 7.296875 -1.03125 C 5.660156 -2.0625 4.382812 -3.503906 3.46875 -5.359375 C 2.550781 -7.222656 2.09375 -9.375 2.09375 -11.8125 C 2.09375 -14.289062 2.550781 -16.460938 3.46875 -18.328125 C 4.382812 -20.191406 5.660156 -21.640625 7.296875 -22.671875 C 8.929688 -23.703125 10.835938 -24.21875 13.015625 -24.21875 C 15.191406 -24.21875 17.097656 -23.703125 18.734375 -22.671875 C 20.378906 -21.640625 21.660156 -20.191406 22.578125 -18.328125 C 23.492188 -16.460938 23.953125 -14.289062 23.953125 -11.8125 C 23.953125 -9.375 23.492188 -7.222656 22.578125 -5.359375 C 21.660156 -3.503906 20.378906 -2.0625 18.734375 -1.03125 C 17.097656 0 15.191406 0.515625 13.015625 0.515625 Z M 13.015625 -2.921875 C 14.597656 -2.921875 15.910156 -3.320312 16.953125 -4.125 C 18.003906 -4.9375 18.785156 -6.015625 19.296875 -7.359375 C 19.804688 -8.710938 20.0625 -10.195312 20.0625 -11.8125 C 20.0625 -13.4375 19.804688 -14.925781 19.296875 -16.28125 C 18.785156 -17.644531 18.003906 -18.734375 16.953125 -19.546875 C 15.910156 -20.367188 14.597656 -20.78125 13.015625 -20.78125 C 11.441406 -20.78125 10.132812 -20.367188 9.09375 -19.546875 C 8.0625 -18.734375 7.285156 -17.648438 6.765625 -16.296875 C 6.242188 -14.941406 5.984375 -13.445312 5.984375 -11.8125 C 5.984375 -10.195312 6.242188 -8.710938 6.765625 -7.359375 C 7.285156 -6.015625 8.0625 -4.9375 9.09375 -4.125 C 10.125 -3.320312 11.429688 -2.921875 13.015625 -2.921875 Z M 13.015625 -2.921875 "/></g></g></g><g fill="#0ea5a4" fill-opacity="1"><g transform="translate(123.484088, 42.486089)"><g><path d="M 7.109375 -14.234375 L 7.109375 0 L 3.265625 0 L 3.265625 -23.875 L 6.96875 -23.875 L 6.984375 -18.09375 L 6.328125 -18.09375 C 7.066406 -20.289062 8.113281 -21.859375 9.46875 -22.796875 C 10.820312 -23.742188 12.414062 -24.21875 14.25 -24.21875 C 15.863281 -24.21875 17.285156 -23.878906 18.515625 -23.203125 C 19.753906 -22.535156 20.722656 -21.523438 21.421875 -20.171875 C 22.117188 -18.828125 22.46875 -17.132812 22.46875 -15.09375 L 22.46875 0 L 18.609375 0 L 18.609375 -14.796875 C 18.609375 -16.660156 18.125 -18.113281 17.15625 -19.15625 C 16.195312 -20.207031 14.875 -20.734375 13.1875 -20.734375 C 12.03125 -20.734375 10.992188 -20.488281 10.078125 -20 C 9.171875 -19.507812 8.445312 -18.78125 7.90625 -17.8125 C 7.375 -16.851562 7.109375 -15.660156 7.109375 -14.234375 Z M 7.109375 -14.234375 "/></g></g></g></g></g></g><path fill="#0ea5a4" d="M 30.027344 39.328125 L 24.964844 39.328125 L 32.417969 22.726562 C 33.296875 24.589844 34.175781 26.558594 35.128906 28.53125 L 30.027344 39.328125 " fill-opacity="1" fill-rule="nonzero"/><g clip-path="url(#85f761f216)"><path fill="#0ea5a4" d="M 22.289062 9.328125 C 35.550781 12.527344 34.492188 39.292969 52.535156 45.9375 C 39.769531 39.679688 41 11.542969 22.289062 9.328125 " fill-opacity="1" fill-rule="evenodd"/></g></svg>